<?xml version="1.0" encoding="utf-8"?>
<!-- Generator: Adobe Illustrator 23.0.1, SVG Export Plug-In . SVG Version: 6.00 Build 0)  -->
<svg version="1.1" id="Layer_1" xmlns="http://www.w3.org/2000/svg" xmlns:xlink="http://www.w3.org/1999/xlink" x="0px" y="0px"
	 viewBox="0 0 1920 1080" style="enable-background:new 0 0 1920 1080;" xml:space="preserve">
<style type="text/css">
	.st0{fill:#FFFFFF;}
	.st1{fill:#FFFFFF;stroke:#000000;stroke-miterlimit:10;}
	.st2{font-family:'MyriadPro-Regular';}
	.st3{font-size:80.4889px;}
	.st4{fill:none;stroke:#000000;stroke-miterlimit:10;}
	.st5{font-size:31.4987px;}
	.st6{fill:#FF0000;stroke:#000000;stroke-miterlimit:10;}
</style>
<g id="rectangle">
	<rect x="0.5" y="0.5" class="st0" width="182" height="148"/>
	<path d="M182,1v147H1V1H182 M183,0H0v149h183V0L183,0z"/>
</g>
<line id="straightLine" class="st1" x1="311.5" y1="66.5" x2="560.5" y2="162.5"/>
<path id="wiglePath" class="st1" d="M119.5,246.5c0,0,120,0,78,90s66,83,66,83"/>
<polyline id="manyLine" class="st1" points="658.5,154.5 866.5,71.5 960.5,154.5 1089.5,71.5 "/>
<ellipse id="elipse" class="st1" cx="374" cy="256.5" rx="82.5" ry="71"/>
<polygon id="star" class="st1" points="267.33,515.52 253.72,580.73 299.72,628.9 233.5,636.11 201.9,694.74 174.58,633.99 
	109.05,622.05 158.39,577.3 149.5,511.29 207.3,544.38 "/>
<text id="e-text" transform="matrix(1 0 0 1 696.582 306.7422)" class="st2 st3">e</text>
<g id="e-group">
	<path d="M781.4,288.55c0.16,9.58,6.28,13.52,13.36,13.52c5.07,0,8.13-0.89,10.79-2.01l1.21,5.07c-2.5,1.13-6.76,2.41-12.96,2.41
		c-11.99,0-19.16-7.89-19.16-19.64c0-11.75,6.92-21.01,18.27-21.01c12.72,0,16.1,11.19,16.1,18.35c0,1.45-0.16,2.58-0.24,3.3H781.4z
		 M802.17,283.48c0.08-4.51-1.85-11.51-9.82-11.51c-7.16,0-10.3,6.6-10.87,11.51H802.17z"/>
</g>
<g id="big-grid">
	<rect x="1238" y="111" class="st4" width="568" height="456"/>
	<line class="st4" x1="1238" y1="491" x2="1806" y2="491"/>
	<line class="st4" x1="1238" y1="415" x2="1806" y2="415"/>
	<line class="st4" x1="1238" y1="339" x2="1806" y2="339"/>
	<line class="st4" x1="1238" y1="263" x2="1806" y2="263"/>
	<line class="st4" x1="1238" y1="187" x2="1806" y2="187"/>
	<line class="st4" x1="1711.33" y1="111" x2="1711.33" y2="567"/>
	<line class="st4" x1="1616.67" y1="111" x2="1616.67" y2="567"/>
	<line class="st4" x1="1522" y1="111" x2="1522" y2="567"/>
	<line class="st4" x1="1427.33" y1="111" x2="1427.33" y2="567"/>
	<line class="st4" x1="1332.67" y1="111" x2="1332.67" y2="567"/>
</g>
<g id="small-grid">
	<rect id="grid-frame" x="452" y="376" class="st4" width="397" height="319"/>
	<line id="liney5" class="st4" x1="452" y1="641.83" x2="849" y2="641.83"/>
	<line id="liney4" class="st4" x1="452" y1="588.67" x2="849" y2="588.67"/>
	<line id="liney3" class="st4" x1="452" y1="535.5" x2="849" y2="535.5"/>
	<line id="liney2" class="st4" x1="452" y1="482.33" x2="849" y2="482.33"/>
	<line id="liney1" class="st4" x1="452" y1="429.17" x2="849" y2="429.17"/>
	<line id="linex5" class="st4" x1="782.83" y1="376" x2="782.83" y2="695"/>
	<line id="linex4" class="st4" x1="716.67" y1="376" x2="716.67" y2="695"/>
	<line id="linex3" class="st4" x1="650.5" y1="376" x2="650.5" y2="695"/>
	<line id="linex2" class="st4" x1="584.33" y1="376" x2="584.33" y2="695"/>
	<line id="linex1" class="st4" x1="518.17" y1="376" x2="518.17" y2="695"/>
</g>
<path class="st4" d="M290.5,932.5c0,0,0.45,0,1,0"/>
<path id="parabula-path" class="st4" d="M1456.5,1023.5c0-164.16,148.04-297,331-297"/>
<path id="sneil" class="st4" d="M481.5,750.5c62.41,77.32,50.32,190.59-27,253c-61.86,49.93-152.47,40.26-202.4-21.6
	c-39.94-49.48-32.2-121.98,17.28-161.92c39.59-31.95,97.58-25.76,129.54,13.82c25.56,31.67,20.61,78.07-11.06,103.63
	c-25.34,20.45-62.45,16.49-82.9-8.85c-16.36-20.27-13.19-49.96,7.08-66.32c16.22-13.09,39.97-10.55,53.06,5.66
	c10.47,12.97,8.44,31.98-4.53,42.45c-10.38,8.38-25.58,6.75-33.96-3.62"/>
<g id="polar-grid">
	<g>
		<ellipse class="st4" cx="1148.5" cy="827" rx="224" ry="196.5"/>
		<ellipse class="st4" cx="1148.5" cy="827" rx="186.67" ry="163.75"/>
		<ellipse class="st4" cx="1148.5" cy="827" rx="149.33" ry="131"/>
		<ellipse class="st4" cx="1148.5" cy="827" rx="112" ry="98.25"/>
		<ellipse class="st4" cx="1148.5" cy="827" rx="74.67" ry="65.5"/>
		<ellipse class="st4" cx="1148.5" cy="827" rx="37.33" ry="32.75"/>
	</g>
	<g>
		<line class="st4" x1="1148.5" y1="827" x2="1148.5" y2="630.5"/>
		<line class="st4" x1="1148.5" y1="827" x2="1361.54" y2="766.28"/>
		<line class="st4" x1="1148.5" y1="827" x2="1280.16" y2="985.97"/>
		<line class="st4" x1="1148.5" y1="827" x2="1016.84" y2="985.97"/>
		<line class="st4" x1="1148.5" y1="827" x2="935.46" y2="766.28"/>
	</g>
</g>
<text id="text-bdfbdbdfbdfbdfbdfbd" transform="matrix(0.8854 0 0 1 865.0957 287.2461)" class="st2 st5">bdfbdbdfbdfbdfbdfbd</text>
<g id="grou-bdbdbsbfbfbfbdsb_text">
	<path d="M867.02,333.25c0.06-1.04,0.11-2.58,0.11-3.94v-18.42h2.43v9.57h0.06c0.86-1.7,2.43-2.8,4.6-2.8
		c3.35,0,5.72,3.15,5.69,7.78c0,5.45-3.04,8.16-6.05,8.16c-1.95,0-3.51-0.85-4.52-2.87h-0.08l-0.11,2.52H867.02z M869.56,327.14
		c0,0.35,0.06,0.69,0.11,1.01c0.47,1.92,1.9,3.24,3.68,3.24c2.57,0,4.1-2.36,4.1-5.86c0-3.06-1.39-5.67-4.02-5.67
		c-1.67,0-3.24,1.29-3.74,3.4c-0.06,0.31-0.14,0.69-0.14,1.13V327.14z"/>
	<path d="M894.66,310.89v18.42c0,1.35,0.03,2.9,0.11,3.94h-2.2l-0.11-2.65h-0.06c-0.75,1.7-2.4,2.99-4.6,2.99
		c-3.26,0-5.77-3.12-5.77-7.75c-0.03-5.07,2.76-8.19,6.05-8.19c2.06,0,3.46,1.1,4.07,2.33h0.06v-9.1H894.66z M892.21,324.21
		c0-0.35-0.03-0.82-0.11-1.17c-0.36-1.76-1.7-3.21-3.54-3.21c-2.54,0-4.04,2.52-4.04,5.89c0,3.09,1.34,5.64,3.99,5.64
		c1.65,0,3.15-1.23,3.6-3.31c0.08-0.38,0.11-0.76,0.11-1.2V324.21z"/>
	<path d="M898.98,333.25v-13.13h-1.9V318h1.9v-0.72c0-2.14,0.42-4.09,1.56-5.32c0.92-1.01,2.15-1.42,3.29-1.42
		c0.86,0,1.62,0.22,2.09,0.44l-0.33,2.14c-0.36-0.19-0.86-0.35-1.56-0.35c-2.09,0-2.62,2.08-2.62,4.41V318h3.26v2.11h-3.26v13.13
		H898.98z"/>
	<path d="M906.76,333.25c0.06-1.04,0.11-2.58,0.11-3.94v-18.42h2.43v9.57h0.06c0.86-1.7,2.43-2.8,4.6-2.8
		c3.35,0,5.72,3.15,5.69,7.78c0,5.45-3.04,8.16-6.05,8.16c-1.95,0-3.51-0.85-4.52-2.87h-0.08l-0.11,2.52H906.76z M909.3,327.14
		c0,0.35,0.06,0.69,0.11,1.01c0.47,1.92,1.9,3.24,3.68,3.24c2.57,0,4.1-2.36,4.1-5.86c0-3.06-1.39-5.67-4.02-5.67
		c-1.67,0-3.24,1.29-3.74,3.4c-0.06,0.31-0.14,0.69-0.14,1.13V327.14z"/>
	<path d="M934.4,310.89v18.42c0,1.35,0.03,2.9,0.11,3.94h-2.2l-0.11-2.65h-0.06c-0.75,1.7-2.4,2.99-4.6,2.99
		c-3.26,0-5.77-3.12-5.77-7.75c-0.03-5.07,2.76-8.19,6.05-8.19c2.06,0,3.46,1.1,4.07,2.33h0.06v-9.1H934.4z M931.95,324.21
		c0-0.35-0.03-0.82-0.11-1.17c-0.36-1.76-1.7-3.21-3.54-3.21c-2.54,0-4.04,2.52-4.04,5.89c0,3.09,1.34,5.64,3.99,5.64
		c1.65,0,3.15-1.23,3.6-3.31c0.08-0.38,0.11-0.76,0.11-1.2V324.21z"/>
	<path d="M938.36,333.25c0.06-1.04,0.11-2.58,0.11-3.94v-18.42h2.43v9.57h0.06c0.86-1.7,2.43-2.8,4.6-2.8
		c3.35,0,5.72,3.15,5.69,7.78c0,5.45-3.04,8.16-6.05,8.16c-1.95,0-3.51-0.85-4.52-2.87h-0.08l-0.11,2.52H938.36z M940.9,327.14
		c0,0.35,0.06,0.69,0.11,1.01c0.47,1.92,1.9,3.24,3.68,3.24c2.57,0,4.1-2.36,4.1-5.86c0-3.06-1.39-5.67-4.02-5.67
		c-1.67,0-3.24,1.29-3.74,3.4c-0.06,0.31-0.14,0.69-0.14,1.13V327.14z"/>
	<path d="M966,310.89v18.42c0,1.35,0.03,2.9,0.11,3.94h-2.2l-0.11-2.65h-0.06c-0.75,1.7-2.4,2.99-4.6,2.99
		c-3.26,0-5.77-3.12-5.77-7.75c-0.03-5.07,2.76-8.19,6.05-8.19c2.06,0,3.46,1.1,4.07,2.33h0.06v-9.1H966z M963.54,324.21
		c0-0.35-0.03-0.82-0.11-1.17c-0.36-1.76-1.7-3.21-3.54-3.21c-2.54,0-4.04,2.52-4.04,5.89c0,3.09,1.34,5.64,3.99,5.64
		c1.65,0,3.15-1.23,3.6-3.31c0.08-0.38,0.11-0.76,0.11-1.2V324.21z"/>
	<path d="M970.32,333.25v-13.13h-1.9V318h1.9v-0.72c0-2.14,0.42-4.09,1.56-5.32c0.92-1.01,2.15-1.42,3.29-1.42
		c0.86,0,1.62,0.22,2.09,0.44l-0.33,2.14c-0.36-0.19-0.86-0.35-1.56-0.35c-2.09,0-2.62,2.08-2.62,4.41V318h3.26v2.11h-3.26v13.13
		H970.32z"/>
	<path d="M978.1,333.25c0.06-1.04,0.11-2.58,0.11-3.94v-18.42h2.43v9.57h0.06c0.87-1.7,2.43-2.8,4.6-2.8c3.35,0,5.72,3.15,5.69,7.78
		c0,5.45-3.04,8.16-6.05,8.16c-1.95,0-3.51-0.85-4.52-2.87h-0.08l-0.11,2.52H978.1z M980.64,327.14c0,0.35,0.06,0.69,0.11,1.01
		c0.47,1.92,1.9,3.24,3.68,3.24c2.57,0,4.1-2.36,4.1-5.86c0-3.06-1.39-5.67-4.02-5.67c-1.67,0-3.24,1.29-3.74,3.4
		c-0.06,0.31-0.14,0.69-0.14,1.13V327.14z"/>
	<path d="M1005.74,310.89v18.42c0,1.35,0.03,2.9,0.11,3.94h-2.2l-0.11-2.65h-0.06c-0.75,1.7-2.4,2.99-4.6,2.99
		c-3.26,0-5.77-3.12-5.77-7.75c-0.03-5.07,2.76-8.19,6.05-8.19c2.06,0,3.46,1.1,4.07,2.33h0.06v-9.1H1005.74z M1003.29,324.21
		c0-0.35-0.03-0.82-0.11-1.17c-0.36-1.76-1.7-3.21-3.54-3.21c-2.54,0-4.04,2.52-4.04,5.89c0,3.09,1.34,5.64,3.99,5.64
		c1.65,0,3.15-1.23,3.6-3.31c0.08-0.38,0.11-0.76,0.11-1.2V324.21z"/>
	<path d="M1010.06,333.25v-13.13h-1.9V318h1.9v-0.72c0-2.14,0.42-4.09,1.56-5.32c0.92-1.01,2.15-1.42,3.29-1.42
		c0.86,0,1.62,0.22,2.09,0.44l-0.33,2.14c-0.36-0.19-0.86-0.35-1.56-0.35c-2.09,0-2.62,2.08-2.62,4.41V318h3.26v2.11h-3.26v13.13
		H1010.06z"/>
	<path d="M1017.84,333.25c0.06-1.04,0.11-2.58,0.11-3.94v-18.42h2.43v9.57h0.06c0.87-1.7,2.43-2.8,4.6-2.8
		c3.35,0,5.72,3.15,5.69,7.78c0,5.45-3.04,8.16-6.05,8.16c-1.95,0-3.51-0.85-4.52-2.87h-0.08l-0.11,2.52H1017.84z M1020.38,327.14
		c0,0.35,0.06,0.69,0.11,1.01c0.47,1.92,1.9,3.24,3.68,3.24c2.57,0,4.1-2.36,4.1-5.86c0-3.06-1.39-5.67-4.02-5.67
		c-1.67,0-3.24,1.29-3.74,3.4c-0.06,0.31-0.14,0.69-0.14,1.13V327.14z"/>
	<path d="M1045.48,310.89v18.42c0,1.35,0.03,2.9,0.11,3.94h-2.2l-0.11-2.65h-0.06c-0.75,1.7-2.4,2.99-4.6,2.99
		c-3.26,0-5.77-3.12-5.77-7.75c-0.03-5.07,2.76-8.19,6.05-8.19c2.06,0,3.46,1.1,4.07,2.33h0.06v-9.1H1045.48z M1043.03,324.21
		c0-0.35-0.03-0.82-0.11-1.17c-0.36-1.76-1.7-3.21-3.54-3.21c-2.54,0-4.04,2.52-4.04,5.89c0,3.09,1.34,5.64,3.99,5.64
		c1.65,0,3.15-1.23,3.6-3.31c0.08-0.38,0.11-0.76,0.11-1.2V324.21z"/>
	<path d="M1049.8,333.25v-13.13h-1.9V318h1.9v-0.72c0-2.14,0.42-4.09,1.56-5.32c0.92-1.01,2.15-1.42,3.29-1.42
		c0.86,0,1.62,0.22,2.09,0.44l-0.33,2.14c-0.36-0.19-0.86-0.35-1.56-0.35c-2.09,0-2.62,2.08-2.62,4.41V318h3.26v2.11h-3.26v13.13
		H1049.8z"/>
	<path d="M1057.58,333.25c0.06-1.04,0.11-2.58,0.11-3.94v-18.42h2.43v9.57h0.06c0.87-1.7,2.43-2.8,4.6-2.8
		c3.35,0,5.72,3.15,5.69,7.78c0,5.45-3.04,8.16-6.05,8.16c-1.95,0-3.51-0.85-4.52-2.87h-0.08l-0.11,2.52H1057.58z M1060.12,327.14
		c0,0.35,0.06,0.69,0.11,1.01c0.47,1.92,1.9,3.24,3.68,3.24c2.57,0,4.1-2.36,4.1-5.86c0-3.06-1.39-5.67-4.02-5.67
		c-1.67,0-3.24,1.29-3.74,3.4c-0.06,0.31-0.14,0.69-0.14,1.13V327.14z"/>
	<path d="M1085.22,310.89v18.42c0,1.35,0.03,2.9,0.11,3.94h-2.2l-0.11-2.65h-0.06c-0.75,1.7-2.4,2.99-4.6,2.99
		c-3.26,0-5.77-3.12-5.77-7.75c-0.03-5.07,2.76-8.19,6.05-8.19c2.06,0,3.46,1.1,4.07,2.33h0.06v-9.1H1085.22z M1082.77,324.21
		c0-0.35-0.03-0.82-0.11-1.17c-0.36-1.76-1.7-3.21-3.54-3.21c-2.54,0-4.04,2.52-4.04,5.89c0,3.09,1.34,5.64,3.99,5.64
		c1.65,0,3.15-1.23,3.6-3.31c0.08-0.38,0.11-0.76,0.11-1.2V324.21z"/>
	<path d="M1089.55,333.25v-13.13h-1.9V318h1.9v-0.72c0-2.14,0.42-4.09,1.56-5.32c0.92-1.01,2.15-1.42,3.29-1.42
		c0.86,0,1.62,0.22,2.09,0.44l-0.33,2.14c-0.36-0.19-0.86-0.35-1.56-0.35c-2.09,0-2.62,2.08-2.62,4.41V318h3.26v2.11h-3.26v13.13
		H1089.55z"/>
	<path d="M1097.33,333.25c0.06-1.04,0.11-2.58,0.11-3.94v-18.42h2.43v9.57h0.06c0.87-1.7,2.43-2.8,4.6-2.8
		c3.35,0,5.72,3.15,5.69,7.78c0,5.45-3.04,8.16-6.05,8.16c-1.95,0-3.51-0.85-4.52-2.87h-0.08l-0.11,2.52H1097.33z M1099.87,327.14
		c0,0.35,0.06,0.69,0.11,1.01c0.47,1.92,1.9,3.24,3.68,3.24c2.57,0,4.1-2.36,4.1-5.86c0-3.06-1.39-5.67-4.02-5.67
		c-1.67,0-3.24,1.29-3.74,3.4c-0.06,0.31-0.14,0.69-0.14,1.13V327.14z"/>
	<path d="M1124.97,310.89v18.42c0,1.35,0.03,2.9,0.11,3.94h-2.2l-0.11-2.65h-0.06c-0.75,1.7-2.4,2.99-4.6,2.99
		c-3.26,0-5.77-3.12-5.77-7.75c-0.03-5.07,2.76-8.19,6.05-8.19c2.06,0,3.46,1.1,4.07,2.33h0.06v-9.1H1124.97z M1122.51,324.21
		c0-0.35-0.03-0.82-0.11-1.17c-0.36-1.76-1.7-3.21-3.54-3.21c-2.54,0-4.04,2.52-4.04,5.89c0,3.09,1.34,5.64,3.99,5.64
		c1.65,0,3.15-1.23,3.6-3.31c0.08-0.38,0.11-0.76,0.11-1.2V324.21z"/>
</g>
<path id="point" class="st6" d="M616.5,66.5"/>
</svg>
